<svg xmlns="http://www.w3.org/2000/svg" xmlns:xlink="http://www.w3.org/1999/xlink" width="500" zoomAndPan="magnify" viewBox="0 0 375 149.999998" height="200" preserveAspectRatio="xMidYMid meet" version="1.0"><defs><g/><clipPath id="5415f07635"><path d="M 327 44 L 355 44 L 355 69 L 327 69 Z M 327 44 " clip-rule="nonzero"/></clipPath><clipPath id="1087fe43fb"><path d="M 323.277344 55.050781 L 335.425781 35.355469 L 364.601562 53.351562 L 352.453125 73.046875 Z M 323.277344 55.050781 " clip-rule="nonzero"/></clipPath><clipPath id="2cd72f9769"><path d="M 323.277344 55.050781 L 335.425781 35.355469 L 364.601562 53.351562 L 352.453125 73.046875 Z M 323.277344 55.050781 " clip-rule="nonzero"/></clipPath><clipPath id="4d93db8be2"><path d="M 336 30 L 364 30 L 364 55 L 336 55 Z M 336 30 " clip-rule="nonzero"/></clipPath><clipPath id="cc7632ebce"><path d="M 331.992188 40.917969 L 344.140625 21.222656 L 373.320312 39.21875 L 361.171875 58.914062 Z M 331.992188 40.917969 " clip-rule="nonzero"/></clipPath><clipPath id="ae015a4533"><path d="M 331.992188 40.917969 L 344.140625 21.222656 L 373.320312 39.21875 L 361.171875 58.914062 Z M 331.992188 40.917969 " clip-rule="nonzero"/></clipPath></defs><g fill="#212124" fill-opacity="1"><g transform="translate(19.253746, 94.837052)"><g><path d="M 28.515625 -31.203125 C 29.578125 -31.203125 30.421875 -30.90625 31.046875 -30.3125 C 31.679688 -29.726562 32 -28.960938 32 -28.015625 L 32 -3.1875 C 32 -2.25 31.679688 -1.484375 31.046875 -0.890625 C 30.421875 -0.296875 29.578125 0 28.515625 0 C 27.492188 0 26.695312 -0.234375 26.125 -0.703125 C 25.550781 -1.171875 25.203125 -1.796875 25.078125 -2.578125 C 23.679688 -1.472656 22.125 -0.664062 20.40625 -0.15625 C 18.695312 0.351562 17.066406 0.609375 15.515625 0.609375 C 12.566406 0.609375 10.019531 -0.0625 7.875 -1.40625 C 5.726562 -2.757812 4.082031 -4.660156 2.9375 -7.109375 C 1.789062 -9.566406 1.21875 -12.429688 1.21875 -15.703125 C 1.21875 -18.890625 1.851562 -21.6875 3.125 -24.09375 C 4.394531 -26.507812 6.160156 -28.398438 8.421875 -29.765625 C 10.691406 -31.140625 13.320312 -31.828125 16.3125 -31.828125 C 17.613281 -31.828125 19.0625 -31.578125 20.65625 -31.078125 C 22.25 -30.585938 23.722656 -29.8125 25.078125 -28.75 C 25.242188 -29.488281 25.609375 -30.082031 26.171875 -30.53125 C 26.742188 -30.976562 27.523438 -31.203125 28.515625 -31.203125 Z M 16.25 -5.578125 C 18.050781 -5.578125 19.785156 -5.972656 21.453125 -6.765625 C 23.128906 -7.566406 24.316406 -8.742188 25.015625 -10.296875 L 25.015625 -20.90625 C 24.234375 -22.414062 23.066406 -23.578125 21.515625 -24.390625 C 19.960938 -25.210938 18.390625 -25.625 16.796875 -25.625 C 14.222656 -25.625 12.148438 -24.679688 10.578125 -22.796875 C 9.003906 -20.921875 8.21875 -18.535156 8.21875 -15.640625 C 8.21875 -12.609375 8.953125 -10.171875 10.421875 -8.328125 C 11.890625 -6.492188 13.832031 -5.578125 16.25 -5.578125 Z M 16.25 -5.578125 "/></g></g></g><g fill="#212124" fill-opacity="1"><g transform="translate(54.688762, 94.837052)"><g><path d="M 17.53125 -5.453125 C 18.71875 -5.453125 19.882812 -5.613281 21.03125 -5.9375 C 22.175781 -6.269531 23.238281 -6.828125 24.21875 -7.609375 C 25.15625 -8.460938 26.070312 -8.859375 26.96875 -8.796875 C 27.875 -8.734375 28.625 -8.40625 29.21875 -7.8125 C 29.8125 -7.21875 30.109375 -6.484375 30.109375 -5.609375 C 30.109375 -4.734375 29.675781 -3.882812 28.8125 -3.0625 C 27.382812 -1.675781 25.6875 -0.707031 23.71875 -0.15625 C 21.757812 0.394531 19.757812 0.648438 17.71875 0.609375 C 14.53125 0.609375 11.71875 -0.0390625 9.28125 -1.34375 C 6.851562 -2.65625 4.953125 -4.472656 3.578125 -6.796875 C 2.210938 -9.128906 1.53125 -11.832031 1.53125 -14.90625 C 1.53125 -18.25 2.179688 -21.1875 3.484375 -23.71875 C 4.796875 -26.257812 6.644531 -28.242188 9.03125 -29.671875 C 11.425781 -31.109375 14.257812 -31.828125 17.53125 -31.828125 C 20.800781 -31.828125 23.582031 -31.160156 25.875 -29.828125 C 28.164062 -28.492188 29.910156 -26.628906 31.109375 -24.234375 C 32.316406 -21.847656 32.921875 -19.0625 32.921875 -15.875 C 32.921875 -14.851562 32.71875 -13.984375 32.3125 -13.265625 C 31.90625 -12.554688 30.820312 -12.203125 29.0625 -12.203125 L 8.640625 -12.203125 C 9.210938 -10.203125 10.296875 -8.578125 11.890625 -7.328125 C 13.484375 -6.078125 15.363281 -5.453125 17.53125 -5.453125 Z M 17.59375 -25.75 C 15.226562 -25.75 13.25 -25.003906 11.65625 -23.515625 C 10.0625 -22.023438 9.035156 -20.070312 8.578125 -17.65625 L 26.421875 -17.65625 C 26.222656 -20.070312 25.425781 -22.023438 24.03125 -23.515625 C 22.644531 -25.003906 20.5 -25.75 17.59375 -25.75 Z M 17.59375 -25.75 "/></g></g></g><g fill="#212124" fill-opacity="1"><g transform="translate(90.307704, 94.837052)"><g><path d="M 16.546875 -31.203125 C 17.648438 -31.203125 18.53125 -30.96875 19.1875 -30.5 C 19.84375 -30.03125 20.171875 -29.265625 20.171875 -28.203125 C 20.171875 -27.222656 19.84375 -26.445312 19.1875 -25.875 C 18.53125 -25.300781 17.648438 -25.015625 16.546875 -25.015625 C 13.972656 -25.015625 12.164062 -24.09375 11.125 -22.25 C 10.082031 -20.414062 9.5625 -17.925781 9.5625 -14.78125 L 9.5625 -3.125 C 9.5625 -2.226562 9.234375 -1.484375 8.578125 -0.890625 C 7.929688 -0.296875 7.132812 0 6.1875 0 C 5.125 0 4.265625 -0.296875 3.609375 -0.890625 C 2.960938 -1.484375 2.640625 -2.226562 2.640625 -3.125 L 2.640625 -28.078125 C 2.640625 -29.054688 3.015625 -29.820312 3.765625 -30.375 C 4.523438 -30.925781 5.332031 -31.203125 6.1875 -31.203125 C 7.050781 -31.203125 7.828125 -30.9375 8.515625 -30.40625 C 9.210938 -29.875 9.5625 -29.097656 9.5625 -28.078125 L 9.5625 -27.71875 C 10.457031 -28.894531 11.5 -29.769531 12.6875 -30.34375 C 13.875 -30.914062 15.160156 -31.203125 16.546875 -31.203125 Z M 16.546875 -31.203125 "/></g></g></g><g fill="#212124" fill-opacity="1"><g transform="translate(108.638007, 94.837052)"><g><path d="M 17.53125 -31.828125 C 20.800781 -31.828125 23.660156 -31.140625 26.109375 -29.765625 C 28.566406 -28.398438 30.46875 -26.488281 31.8125 -24.03125 C 33.164062 -21.582031 33.84375 -18.722656 33.84375 -15.453125 C 33.800781 -12.265625 33.09375 -9.460938 31.71875 -7.046875 C 30.351562 -4.640625 28.453125 -2.757812 26.015625 -1.40625 C 23.585938 -0.0625 20.757812 0.609375 17.53125 0.609375 C 14.34375 0.609375 11.519531 -0.0625 9.0625 -1.40625 C 6.613281 -2.757812 4.703125 -4.640625 3.328125 -7.046875 C 1.960938 -9.460938 1.257812 -12.265625 1.21875 -15.453125 C 1.21875 -18.722656 1.898438 -21.582031 3.265625 -24.03125 C 4.640625 -26.488281 6.550781 -28.398438 9 -29.765625 C 11.457031 -31.140625 14.300781 -31.828125 17.53125 -31.828125 Z M 17.53125 -5.515625 C 20.3125 -5.515625 22.53125 -6.429688 24.1875 -8.265625 C 25.84375 -10.109375 26.671875 -12.503906 26.671875 -15.453125 C 26.671875 -18.472656 25.84375 -20.929688 24.1875 -22.828125 C 22.53125 -24.734375 20.3125 -25.6875 17.53125 -25.6875 C 14.789062 -25.6875 12.582031 -24.734375 10.90625 -22.828125 C 9.238281 -20.929688 8.40625 -18.472656 8.40625 -15.453125 C 8.40625 -12.503906 9.238281 -10.109375 10.90625 -8.265625 C 12.582031 -6.429688 14.789062 -5.515625 17.53125 -5.515625 Z M 17.53125 -5.515625 "/></g></g></g><g fill="#212124" fill-opacity="1"><g transform="translate(142.662953, 94.837052)"><g><path d="M 24.21875 -22.8125 C 23.28125 -23.914062 22.175781 -24.691406 20.90625 -25.140625 C 19.632812 -25.585938 18.390625 -25.8125 17.171875 -25.8125 C 14.472656 -25.8125 12.304688 -24.878906 10.671875 -23.015625 C 9.035156 -21.160156 8.21875 -18.660156 8.21875 -15.515625 C 8.21875 -12.484375 9.066406 -10.046875 10.765625 -8.203125 C 12.460938 -6.367188 14.675781 -5.453125 17.40625 -5.453125 C 18.632812 -5.453125 19.878906 -5.664062 21.140625 -6.09375 C 22.410156 -6.53125 23.539062 -7.238281 24.53125 -8.21875 C 25.425781 -9.113281 26.3125 -9.582031 27.1875 -9.625 C 28.070312 -9.664062 28.800781 -9.421875 29.375 -8.890625 C 29.945312 -8.359375 30.257812 -7.671875 30.3125 -6.828125 C 30.375 -5.992188 30.019531 -5.148438 29.25 -4.296875 C 27.65625 -2.535156 25.820312 -1.273438 23.75 -0.515625 C 21.6875 0.234375 19.550781 0.609375 17.34375 0.609375 C 14.113281 0.609375 11.285156 -0.0625 8.859375 -1.40625 C 6.429688 -2.757812 4.539062 -4.640625 3.1875 -7.046875 C 1.84375 -9.460938 1.171875 -12.265625 1.171875 -15.453125 C 1.171875 -18.765625 1.832031 -21.644531 3.15625 -24.09375 C 4.488281 -26.550781 6.359375 -28.453125 8.765625 -29.796875 C 11.179688 -31.148438 13.984375 -31.828125 17.171875 -31.828125 C 19.421875 -31.828125 21.515625 -31.476562 23.453125 -30.78125 C 25.390625 -30.082031 27.175781 -28.773438 28.8125 -26.859375 C 29.550781 -25.992188 29.867188 -25.148438 29.765625 -24.328125 C 29.660156 -23.515625 29.300781 -22.84375 28.6875 -22.3125 C 28.082031 -21.78125 27.359375 -21.523438 26.515625 -21.546875 C 25.679688 -21.566406 24.914062 -21.988281 24.21875 -22.8125 Z M 24.21875 -22.8125 "/></g></g></g><g fill="#212124" fill-opacity="1"><g transform="translate(173.315997, 94.837052)"><g><path d="M 28.515625 -31.203125 C 29.578125 -31.203125 30.421875 -30.90625 31.046875 -30.3125 C 31.679688 -29.726562 32 -28.960938 32 -28.015625 L 32 -3.1875 C 32 -2.25 31.679688 -1.484375 31.046875 -0.890625 C 30.421875 -0.296875 29.578125 0 28.515625 0 C 27.492188 0 26.695312 -0.234375 26.125 -0.703125 C 25.550781 -1.171875 25.203125 -1.796875 25.078125 -2.578125 C 23.679688 -1.472656 22.125 -0.664062 20.40625 -0.15625 C 18.695312 0.351562 17.066406 0.609375 15.515625 0.609375 C 12.566406 0.609375 10.019531 -0.0625 7.875 -1.40625 C 5.726562 -2.757812 4.082031 -4.660156 2.9375 -7.109375 C 1.789062 -9.566406 1.21875 -12.429688 1.21875 -15.703125 C 1.21875 -18.890625 1.851562 -21.6875 3.125 -24.09375 C 4.394531 -26.507812 6.160156 -28.398438 8.421875 -29.765625 C 10.691406 -31.140625 13.320312 -31.828125 16.3125 -31.828125 C 17.613281 -31.828125 19.0625 -31.578125 20.65625 -31.078125 C 22.25 -30.585938 23.722656 -29.8125 25.078125 -28.75 C 25.242188 -29.488281 25.609375 -30.082031 26.171875 -30.53125 C 26.742188 -30.976562 27.523438 -31.203125 28.515625 -31.203125 Z M 16.25 -5.578125 C 18.050781 -5.578125 19.785156 -5.972656 21.453125 -6.765625 C 23.128906 -7.566406 24.316406 -8.742188 25.015625 -10.296875 L 25.015625 -20.90625 C 24.234375 -22.414062 23.066406 -23.578125 21.515625 -24.390625 C 19.960938 -25.210938 18.390625 -25.625 16.796875 -25.625 C 14.222656 -25.625 12.148438 -24.679688 10.578125 -22.796875 C 9.003906 -20.921875 8.21875 -18.535156 8.21875 -15.640625 C 8.21875 -12.609375 8.953125 -10.171875 10.421875 -8.328125 C 11.890625 -6.492188 13.832031 -5.578125 16.25 -5.578125 Z M 16.25 -5.578125 "/></g></g></g><g fill="#212124" fill-opacity="1"><g transform="translate(208.751014, 94.837052)"><g><path d="M 28.578125 -39.671875 C 29.429688 -39.671875 30.234375 -39.425781 30.984375 -38.9375 C 31.742188 -38.445312 32.125 -37.671875 32.125 -36.609375 L 32.125 -3.125 C 32.125 -1.039062 30.941406 0 28.578125 0 C 26.453125 0 25.347656 -0.976562 25.265625 -2.9375 C 23.953125 -1.789062 22.476562 -0.921875 20.84375 -0.328125 C 19.207031 0.253906 17.65625 0.546875 16.1875 0.546875 C 13.125 0.546875 10.476562 -0.144531 8.25 -1.53125 C 6.019531 -2.925781 4.3125 -4.867188 3.125 -7.359375 C 1.9375 -9.847656 1.34375 -12.707031 1.34375 -15.9375 C 1.34375 -19.039062 1.976562 -21.78125 3.25 -24.15625 C 4.519531 -26.53125 6.285156 -28.398438 8.546875 -29.765625 C 10.816406 -31.140625 13.445312 -31.828125 16.4375 -31.828125 C 17.78125 -31.828125 19.226562 -31.5625 20.78125 -31.03125 C 22.332031 -30.5 23.785156 -29.703125 25.140625 -28.640625 L 25.140625 -36.609375 C 25.140625 -37.671875 25.492188 -38.445312 26.203125 -38.9375 C 26.921875 -39.425781 27.710938 -39.671875 28.578125 -39.671875 Z M 16.375 -5.640625 C 18.414062 -5.640625 20.265625 -6.097656 21.921875 -7.015625 C 23.578125 -7.941406 24.691406 -9.28125 25.265625 -11.03125 L 25.203125 -20.484375 C 24.503906 -22.148438 23.367188 -23.421875 21.796875 -24.296875 C 20.222656 -25.179688 18.597656 -25.625 16.921875 -25.625 C 14.347656 -25.625 12.273438 -24.691406 10.703125 -22.828125 C 9.128906 -20.972656 8.34375 -18.65625 8.34375 -15.875 C 8.34375 -12.894531 9.078125 -10.441406 10.546875 -8.515625 C 12.015625 -6.597656 13.957031 -5.640625 16.375 -5.640625 Z M 16.375 -5.640625 "/></g></g></g><g fill="#212124" fill-opacity="1"><g transform="translate(244.247328, 94.837052)"><g><path d="M 44.875 -31.828125 C 47.738281 -31.828125 50.171875 -31.203125 52.171875 -29.953125 C 54.179688 -28.703125 55.71875 -26.960938 56.78125 -24.734375 C 57.84375 -22.503906 58.375 -19.921875 58.375 -16.984375 L 58.375 -3.1875 C 58.375 -2.25 58.078125 -1.484375 57.484375 -0.890625 C 56.890625 -0.296875 56.019531 0 54.875 0 C 53.851562 0 53.015625 -0.296875 52.359375 -0.890625 C 51.703125 -1.484375 51.375 -2.25 51.375 -3.1875 L 51.375 -17.109375 C 51.375 -19.640625 50.769531 -21.703125 49.5625 -23.296875 C 48.363281 -24.890625 46.476562 -25.6875 43.90625 -25.6875 C 42.59375 -25.6875 41.207031 -25.273438 39.75 -24.453125 C 38.300781 -23.640625 37.078125 -22.457031 36.078125 -20.90625 C 35.078125 -19.351562 34.578125 -17.453125 34.578125 -15.203125 L 34.578125 -3.1875 C 34.578125 -2.25 34.28125 -1.484375 33.6875 -0.890625 C 33.09375 -0.296875 32.242188 0 31.140625 0 C 30.117188 0 29.269531 -0.296875 28.59375 -0.890625 C 27.925781 -1.484375 27.59375 -2.25 27.59375 -3.1875 L 27.59375 -17.109375 C 27.59375 -19.640625 26.988281 -21.703125 25.78125 -23.296875 C 24.570312 -24.890625 22.679688 -25.6875 20.109375 -25.6875 C 19.335938 -25.6875 18.4375 -25.472656 17.40625 -25.046875 C 16.382812 -24.617188 15.382812 -23.972656 14.40625 -23.109375 C 13.425781 -22.253906 12.617188 -21.171875 11.984375 -19.859375 C 11.347656 -18.554688 11.03125 -17.003906 11.03125 -15.203125 L 11.03125 -3.0625 C 11.03125 -2.039062 10.660156 -1.273438 9.921875 -0.765625 C 9.191406 -0.253906 8.398438 0 7.546875 0 C 6.640625 0 5.835938 -0.253906 5.140625 -0.765625 C 4.453125 -1.273438 4.109375 -2.039062 4.109375 -3.0625 L 4.109375 -28.078125 C 4.109375 -28.941406 4.441406 -29.675781 5.109375 -30.28125 C 5.785156 -30.894531 6.597656 -31.203125 7.546875 -31.203125 C 8.609375 -31.203125 9.453125 -30.894531 10.078125 -30.28125 C 10.710938 -29.675781 11.03125 -28.941406 11.03125 -28.078125 L 11.03125 -27.890625 C 12.707031 -29.484375 14.425781 -30.535156 16.1875 -31.046875 C 17.945312 -31.566406 19.601562 -31.828125 21.15625 -31.828125 C 23.726562 -31.828125 25.953125 -31.300781 27.828125 -30.25 C 29.710938 -29.207031 31.207031 -27.789062 32.3125 -26 C 33.582031 -27.550781 34.953125 -28.742188 36.421875 -29.578125 C 37.890625 -30.421875 39.359375 -31.003906 40.828125 -31.328125 C 42.304688 -31.660156 43.65625 -31.828125 44.875 -31.828125 Z M 44.875 -31.828125 "/></g></g></g><g fill="#212124" fill-opacity="1"><g transform="translate(307.393207, 94.837052)"><g><path d="M 28.578125 -31.203125 C 29.640625 -31.203125 30.546875 -30.742188 31.296875 -29.828125 C 32.054688 -28.910156 32.210938 -27.835938 31.765625 -26.609375 L 13.859375 8.515625 C 13.453125 9.296875 12.929688 9.910156 12.296875 10.359375 C 11.660156 10.804688 10.992188 11.03125 10.296875 11.03125 C 9.609375 11.03125 8.96875 10.796875 8.375 10.328125 C 7.78125 9.859375 7.367188 9.253906 7.140625 8.515625 C 6.921875 7.785156 7.015625 7.007812 7.421875 6.1875 L 12.078125 -3 L 0 -26.359375 C -0.363281 -27.179688 -0.410156 -27.957031 -0.140625 -28.6875 C 0.117188 -29.425781 0.550781 -30.03125 1.15625 -30.5 C 1.769531 -30.96875 2.445312 -31.203125 3.1875 -31.203125 C 3.84375 -31.203125 4.476562 -31 5.09375 -30.59375 C 5.707031 -30.1875 6.15625 -29.65625 6.4375 -29 L 15.875 -10.546875 L 25.328125 -29.0625 C 25.609375 -29.71875 26.035156 -30.238281 26.609375 -30.625 C 27.179688 -31.007812 27.835938 -31.203125 28.578125 -31.203125 Z M 28.578125 -31.203125 "/></g></g></g><g clip-path="url(#5415f07635)"><g clip-path="url(#1087fe43fb)"><g clip-path="url(#2cd72f9769)"><path fill="#18cb96" d="M 350.265625 44.605469 L 330.183594 49.257812 C 326.300781 50.15625 327.738281 57.800781 332.3125 56.65625 L 344.75 53.546875 L 347.273438 66.234375 C 348.039062 70.097656 355.53125 68.4375 354.667969 64.535156 Z M 350.265625 44.605469 " fill-opacity="1" fill-rule="nonzero"/></g></g></g><g clip-path="url(#4d93db8be2)"><g clip-path="url(#cc7632ebce)"><g clip-path="url(#ae015a4533)"><path fill="#0097b2" d="M 358.984375 30.472656 L 338.898438 35.125 C 335.019531 36.023438 336.453125 43.667969 341.027344 42.527344 L 353.46875 39.417969 L 355.988281 52.101562 C 356.757812 55.964844 364.246094 54.304688 363.382812 50.402344 Z M 358.984375 30.472656 " fill-opacity="1" fill-rule="nonzero"/></g></g></g></svg>