<svg xmlns="http://www.w3.org/2000/svg" xmlns:xlink="http://www.w3.org/1999/xlink" width="500" zoomAndPan="magnify" viewBox="0 0 375 374.999991" height="500" preserveAspectRatio="xMidYMid meet" version="1.2"><defs><clipPath id="844f768058"><path d="M 54 162 L 241 162 L 241 328 L 54 328 Z M 54 162 "/></clipPath><clipPath id="6b8f621daa"><path d="M 22.566406 235.027344 L 107.148438 97.898438 L 310.304688 223.203125 L 225.722656 360.335938 Z M 22.566406 235.027344 "/></clipPath><clipPath id="e3c84bafce"><path d="M 22.566406 235.027344 L 107.148438 97.898438 L 310.304688 223.203125 L 225.722656 360.335938 Z M 22.566406 235.027344 "/></clipPath><clipPath id="3582b8daa9"><path d="M 115 64 L 302 64 L 302 230 L 115 230 Z M 115 64 "/></clipPath><clipPath id="df1a5ac653"><path d="M 83.257812 136.628906 L 167.839844 -0.5 L 370.996094 124.804688 L 286.414062 261.9375 Z M 83.257812 136.628906 "/></clipPath><clipPath id="817825bab0"><path d="M 83.257812 136.628906 L 167.839844 -0.5 L 370.996094 124.804688 L 286.414062 261.9375 Z M 83.257812 136.628906 "/></clipPath></defs><g id="9a798ff638"><rect x="0" width="375" y="0" height="374.999991" style="fill:#ffffff;fill-opacity:1;stroke:none;"/><rect x="0" width="375" y="0" height="374.999991" style="fill:#ffffff;fill-opacity:1;stroke:none;"/><g clip-rule="nonzero" clip-path="url(#844f768058)"><g clip-rule="nonzero" clip-path="url(#6b8f621daa)"><g clip-rule="nonzero" clip-path="url(#e3c84bafce)"><path style=" stroke:none;fill-rule:nonzero;fill:#18cb96;fill-opacity:1;" d="M 209.394531 162.722656 L 70.363281 194.929688 C 43.507812 201.148438 53.441406 254.070312 85.109375 246.15625 L 171.207031 224.628906 L 188.667969 312.4375 C 193.984375 339.175781 245.824219 327.695312 239.855469 300.675781 Z M 209.394531 162.722656 "/></g></g></g><g clip-rule="nonzero" clip-path="url(#3582b8daa9)"><g clip-rule="nonzero" clip-path="url(#df1a5ac653)"><g clip-rule="nonzero" clip-path="url(#817825bab0)"><path style=" stroke:none;fill-rule:nonzero;fill:#0097b2;fill-opacity:1;" d="M 270.085938 64.324219 L 131.054688 96.53125 C 104.199219 102.75 114.136719 155.671875 145.800781 147.757812 L 231.898438 126.234375 L 249.359375 214.039062 C 254.675781 240.777344 306.515625 229.296875 300.546875 202.277344 Z M 270.085938 64.324219 "/></g></g></g></g></svg>