<svg xmlns="http://www.w3.org/2000/svg" xmlns:xlink="http://www.w3.org/1999/xlink" width="500" zoomAndPan="magnify" viewBox="0 0 375 149.999998" height="200" preserveAspectRatio="xMidYMid meet" version="1.0"><defs><g/><clipPath id="29f1f67c70"><path d="M 322 41 L 350 41 L 350 66 L 322 66 Z M 322 41 " clip-rule="nonzero"/></clipPath><clipPath id="bcaf85a1ad"><path d="M 317.585938 51.75 L 329.734375 32.054688 L 358.914062 50.050781 L 346.765625 69.746094 Z M 317.585938 51.75 " clip-rule="nonzero"/></clipPath><clipPath id="158a2320b1"><path d="M 317.585938 51.75 L 329.734375 32.054688 L 358.914062 50.050781 L 346.765625 69.746094 Z M 317.585938 51.75 " clip-rule="nonzero"/></clipPath><clipPath id="245cdc0ce5"><path d="M 330 27 L 358 27 L 358 51 L 330 51 Z M 330 27 " clip-rule="nonzero"/></clipPath><clipPath id="2fa467f898"><path d="M 326.304688 37.617188 L 338.453125 17.925781 L 367.628906 35.921875 L 355.480469 55.617188 Z M 326.304688 37.617188 " clip-rule="nonzero"/></clipPath><clipPath id="4c94548b6e"><path d="M 326.304688 37.617188 L 338.453125 17.925781 L 367.628906 35.921875 L 355.480469 55.617188 Z M 326.304688 37.617188 " clip-rule="nonzero"/></clipPath></defs><g fill="#ffffff" fill-opacity="1"><g transform="translate(13.563785, 91.53705)"><g><path d="M 28.515625 -31.203125 C 29.578125 -31.203125 30.421875 -30.90625 31.046875 -30.3125 C 31.679688 -29.726562 32 -28.960938 32 -28.015625 L 32 -3.1875 C 32 -2.25 31.679688 -1.484375 31.046875 -0.890625 C 30.421875 -0.296875 29.578125 0 28.515625 0 C 27.492188 0 26.695312 -0.234375 26.125 -0.703125 C 25.550781 -1.171875 25.203125 -1.796875 25.078125 -2.578125 C 23.679688 -1.472656 22.125 -0.664062 20.40625 -0.15625 C 18.695312 0.351562 17.066406 0.609375 15.515625 0.609375 C 12.566406 0.609375 10.019531 -0.0625 7.875 -1.40625 C 5.726562 -2.757812 4.082031 -4.660156 2.9375 -7.109375 C 1.789062 -9.566406 1.21875 -12.429688 1.21875 -15.703125 C 1.21875 -18.890625 1.851562 -21.6875 3.125 -24.09375 C 4.394531 -26.507812 6.160156 -28.398438 8.421875 -29.765625 C 10.691406 -31.140625 13.320312 -31.828125 16.3125 -31.828125 C 17.613281 -31.828125 19.0625 -31.578125 20.65625 -31.078125 C 22.25 -30.585938 23.722656 -29.8125 25.078125 -28.75 C 25.242188 -29.488281 25.609375 -30.082031 26.171875 -30.53125 C 26.742188 -30.976562 27.523438 -31.203125 28.515625 -31.203125 Z M 16.25 -5.578125 C 18.050781 -5.578125 19.785156 -5.972656 21.453125 -6.765625 C 23.128906 -7.566406 24.316406 -8.742188 25.015625 -10.296875 L 25.015625 -20.90625 C 24.234375 -22.414062 23.066406 -23.578125 21.515625 -24.390625 C 19.960938 -25.210938 18.390625 -25.625 16.796875 -25.625 C 14.222656 -25.625 12.148438 -24.679688 10.578125 -22.796875 C 9.003906 -20.921875 8.21875 -18.535156 8.21875 -15.640625 C 8.21875 -12.609375 8.953125 -10.171875 10.421875 -8.328125 C 11.890625 -6.492188 13.832031 -5.578125 16.25 -5.578125 Z M 16.25 -5.578125 "/></g></g></g><g fill="#ffffff" fill-opacity="1"><g transform="translate(48.998802, 91.53705)"><g><path d="M 17.53125 -5.453125 C 18.71875 -5.453125 19.882812 -5.613281 21.03125 -5.9375 C 22.175781 -6.269531 23.238281 -6.828125 24.21875 -7.609375 C 25.15625 -8.460938 26.070312 -8.859375 26.96875 -8.796875 C 27.875 -8.734375 28.625 -8.40625 29.21875 -7.8125 C 29.8125 -7.21875 30.109375 -6.484375 30.109375 -5.609375 C 30.109375 -4.734375 29.675781 -3.882812 28.8125 -3.0625 C 27.382812 -1.675781 25.6875 -0.707031 23.71875 -0.15625 C 21.757812 0.394531 19.757812 0.648438 17.71875 0.609375 C 14.53125 0.609375 11.71875 -0.0390625 9.28125 -1.34375 C 6.851562 -2.65625 4.953125 -4.472656 3.578125 -6.796875 C 2.210938 -9.128906 1.53125 -11.832031 1.53125 -14.90625 C 1.53125 -18.25 2.179688 -21.1875 3.484375 -23.71875 C 4.796875 -26.257812 6.644531 -28.242188 9.03125 -29.671875 C 11.425781 -31.109375 14.257812 -31.828125 17.53125 -31.828125 C 20.800781 -31.828125 23.582031 -31.160156 25.875 -29.828125 C 28.164062 -28.492188 29.910156 -26.628906 31.109375 -24.234375 C 32.316406 -21.847656 32.921875 -19.0625 32.921875 -15.875 C 32.921875 -14.851562 32.71875 -13.984375 32.3125 -13.265625 C 31.90625 -12.554688 30.820312 -12.203125 29.0625 -12.203125 L 8.640625 -12.203125 C 9.210938 -10.203125 10.296875 -8.578125 11.890625 -7.328125 C 13.484375 -6.078125 15.363281 -5.453125 17.53125 -5.453125 Z M 17.59375 -25.75 C 15.226562 -25.75 13.25 -25.003906 11.65625 -23.515625 C 10.0625 -22.023438 9.035156 -20.070312 8.578125 -17.65625 L 26.421875 -17.65625 C 26.222656 -20.070312 25.425781 -22.023438 24.03125 -23.515625 C 22.644531 -25.003906 20.5 -25.75 17.59375 -25.75 Z M 17.59375 -25.75 "/></g></g></g><g fill="#ffffff" fill-opacity="1"><g transform="translate(84.617743, 91.53705)"><g><path d="M 16.546875 -31.203125 C 17.648438 -31.203125 18.53125 -30.96875 19.1875 -30.5 C 19.84375 -30.03125 20.171875 -29.265625 20.171875 -28.203125 C 20.171875 -27.222656 19.84375 -26.445312 19.1875 -25.875 C 18.53125 -25.300781 17.648438 -25.015625 16.546875 -25.015625 C 13.972656 -25.015625 12.164062 -24.09375 11.125 -22.25 C 10.082031 -20.414062 9.5625 -17.925781 9.5625 -14.78125 L 9.5625 -3.125 C 9.5625 -2.226562 9.234375 -1.484375 8.578125 -0.890625 C 7.929688 -0.296875 7.132812 0 6.1875 0 C 5.125 0 4.265625 -0.296875 3.609375 -0.890625 C 2.960938 -1.484375 2.640625 -2.226562 2.640625 -3.125 L 2.640625 -28.078125 C 2.640625 -29.054688 3.015625 -29.820312 3.765625 -30.375 C 4.523438 -30.925781 5.332031 -31.203125 6.1875 -31.203125 C 7.050781 -31.203125 7.828125 -30.9375 8.515625 -30.40625 C 9.210938 -29.875 9.5625 -29.097656 9.5625 -28.078125 L 9.5625 -27.71875 C 10.457031 -28.894531 11.5 -29.769531 12.6875 -30.34375 C 13.875 -30.914062 15.160156 -31.203125 16.546875 -31.203125 Z M 16.546875 -31.203125 "/></g></g></g><g fill="#ffffff" fill-opacity="1"><g transform="translate(102.948046, 91.53705)"><g><path d="M 17.53125 -31.828125 C 20.800781 -31.828125 23.660156 -31.140625 26.109375 -29.765625 C 28.566406 -28.398438 30.46875 -26.488281 31.8125 -24.03125 C 33.164062 -21.582031 33.84375 -18.722656 33.84375 -15.453125 C 33.800781 -12.265625 33.09375 -9.460938 31.71875 -7.046875 C 30.351562 -4.640625 28.453125 -2.757812 26.015625 -1.40625 C 23.585938 -0.0625 20.757812 0.609375 17.53125 0.609375 C 14.34375 0.609375 11.519531 -0.0625 9.0625 -1.40625 C 6.613281 -2.757812 4.703125 -4.640625 3.328125 -7.046875 C 1.960938 -9.460938 1.257812 -12.265625 1.21875 -15.453125 C 1.21875 -18.722656 1.898438 -21.582031 3.265625 -24.03125 C 4.640625 -26.488281 6.550781 -28.398438 9 -29.765625 C 11.457031 -31.140625 14.300781 -31.828125 17.53125 -31.828125 Z M 17.53125 -5.515625 C 20.3125 -5.515625 22.53125 -6.429688 24.1875 -8.265625 C 25.84375 -10.109375 26.671875 -12.503906 26.671875 -15.453125 C 26.671875 -18.472656 25.84375 -20.929688 24.1875 -22.828125 C 22.53125 -24.734375 20.3125 -25.6875 17.53125 -25.6875 C 14.789062 -25.6875 12.582031 -24.734375 10.90625 -22.828125 C 9.238281 -20.929688 8.40625 -18.472656 8.40625 -15.453125 C 8.40625 -12.503906 9.238281 -10.109375 10.90625 -8.265625 C 12.582031 -6.429688 14.789062 -5.515625 17.53125 -5.515625 Z M 17.53125 -5.515625 "/></g></g></g><g fill="#ffffff" fill-opacity="1"><g transform="translate(136.972992, 91.53705)"><g><path d="M 24.21875 -22.8125 C 23.28125 -23.914062 22.175781 -24.691406 20.90625 -25.140625 C 19.632812 -25.585938 18.390625 -25.8125 17.171875 -25.8125 C 14.472656 -25.8125 12.304688 -24.878906 10.671875 -23.015625 C 9.035156 -21.160156 8.21875 -18.660156 8.21875 -15.515625 C 8.21875 -12.484375 9.066406 -10.046875 10.765625 -8.203125 C 12.460938 -6.367188 14.675781 -5.453125 17.40625 -5.453125 C 18.632812 -5.453125 19.878906 -5.664062 21.140625 -6.09375 C 22.410156 -6.53125 23.539062 -7.238281 24.53125 -8.21875 C 25.425781 -9.113281 26.3125 -9.582031 27.1875 -9.625 C 28.070312 -9.664062 28.800781 -9.421875 29.375 -8.890625 C 29.945312 -8.359375 30.257812 -7.671875 30.3125 -6.828125 C 30.375 -5.992188 30.019531 -5.148438 29.25 -4.296875 C 27.65625 -2.535156 25.820312 -1.273438 23.75 -0.515625 C 21.6875 0.234375 19.550781 0.609375 17.34375 0.609375 C 14.113281 0.609375 11.285156 -0.0625 8.859375 -1.40625 C 6.429688 -2.757812 4.539062 -4.640625 3.1875 -7.046875 C 1.84375 -9.460938 1.171875 -12.265625 1.171875 -15.453125 C 1.171875 -18.765625 1.832031 -21.644531 3.15625 -24.09375 C 4.488281 -26.550781 6.359375 -28.453125 8.765625 -29.796875 C 11.179688 -31.148438 13.984375 -31.828125 17.171875 -31.828125 C 19.421875 -31.828125 21.515625 -31.476562 23.453125 -30.78125 C 25.390625 -30.082031 27.175781 -28.773438 28.8125 -26.859375 C 29.550781 -25.992188 29.867188 -25.148438 29.765625 -24.328125 C 29.660156 -23.515625 29.300781 -22.84375 28.6875 -22.3125 C 28.082031 -21.78125 27.359375 -21.523438 26.515625 -21.546875 C 25.679688 -21.566406 24.914062 -21.988281 24.21875 -22.8125 Z M 24.21875 -22.8125 "/></g></g></g><g fill="#ffffff" fill-opacity="1"><g transform="translate(167.626037, 91.53705)"><g><path d="M 28.515625 -31.203125 C 29.578125 -31.203125 30.421875 -30.90625 31.046875 -30.3125 C 31.679688 -29.726562 32 -28.960938 32 -28.015625 L 32 -3.1875 C 32 -2.25 31.679688 -1.484375 31.046875 -0.890625 C 30.421875 -0.296875 29.578125 0 28.515625 0 C 27.492188 0 26.695312 -0.234375 26.125 -0.703125 C 25.550781 -1.171875 25.203125 -1.796875 25.078125 -2.578125 C 23.679688 -1.472656 22.125 -0.664062 20.40625 -0.15625 C 18.695312 0.351562 17.066406 0.609375 15.515625 0.609375 C 12.566406 0.609375 10.019531 -0.0625 7.875 -1.40625 C 5.726562 -2.757812 4.082031 -4.660156 2.9375 -7.109375 C 1.789062 -9.566406 1.21875 -12.429688 1.21875 -15.703125 C 1.21875 -18.890625 1.851562 -21.6875 3.125 -24.09375 C 4.394531 -26.507812 6.160156 -28.398438 8.421875 -29.765625 C 10.691406 -31.140625 13.320312 -31.828125 16.3125 -31.828125 C 17.613281 -31.828125 19.0625 -31.578125 20.65625 -31.078125 C 22.25 -30.585938 23.722656 -29.8125 25.078125 -28.75 C 25.242188 -29.488281 25.609375 -30.082031 26.171875 -30.53125 C 26.742188 -30.976562 27.523438 -31.203125 28.515625 -31.203125 Z M 16.25 -5.578125 C 18.050781 -5.578125 19.785156 -5.972656 21.453125 -6.765625 C 23.128906 -7.566406 24.316406 -8.742188 25.015625 -10.296875 L 25.015625 -20.90625 C 24.234375 -22.414062 23.066406 -23.578125 21.515625 -24.390625 C 19.960938 -25.210938 18.390625 -25.625 16.796875 -25.625 C 14.222656 -25.625 12.148438 -24.679688 10.578125 -22.796875 C 9.003906 -20.921875 8.21875 -18.535156 8.21875 -15.640625 C 8.21875 -12.609375 8.953125 -10.171875 10.421875 -8.328125 C 11.890625 -6.492188 13.832031 -5.578125 16.25 -5.578125 Z M 16.25 -5.578125 "/></g></g></g><g fill="#ffffff" fill-opacity="1"><g transform="translate(203.061053, 91.53705)"><g><path d="M 28.578125 -39.671875 C 29.429688 -39.671875 30.234375 -39.425781 30.984375 -38.9375 C 31.742188 -38.445312 32.125 -37.671875 32.125 -36.609375 L 32.125 -3.125 C 32.125 -1.039062 30.941406 0 28.578125 0 C 26.453125 0 25.347656 -0.976562 25.265625 -2.9375 C 23.953125 -1.789062 22.476562 -0.921875 20.84375 -0.328125 C 19.207031 0.253906 17.65625 0.546875 16.1875 0.546875 C 13.125 0.546875 10.476562 -0.144531 8.25 -1.53125 C 6.019531 -2.925781 4.3125 -4.867188 3.125 -7.359375 C 1.9375 -9.847656 1.34375 -12.707031 1.34375 -15.9375 C 1.34375 -19.039062 1.976562 -21.78125 3.25 -24.15625 C 4.519531 -26.53125 6.285156 -28.398438 8.546875 -29.765625 C 10.816406 -31.140625 13.445312 -31.828125 16.4375 -31.828125 C 17.78125 -31.828125 19.226562 -31.5625 20.78125 -31.03125 C 22.332031 -30.5 23.785156 -29.703125 25.140625 -28.640625 L 25.140625 -36.609375 C 25.140625 -37.671875 25.492188 -38.445312 26.203125 -38.9375 C 26.921875 -39.425781 27.710938 -39.671875 28.578125 -39.671875 Z M 16.375 -5.640625 C 18.414062 -5.640625 20.265625 -6.097656 21.921875 -7.015625 C 23.578125 -7.941406 24.691406 -9.28125 25.265625 -11.03125 L 25.203125 -20.484375 C 24.503906 -22.148438 23.367188 -23.421875 21.796875 -24.296875 C 20.222656 -25.179688 18.597656 -25.625 16.921875 -25.625 C 14.347656 -25.625 12.273438 -24.691406 10.703125 -22.828125 C 9.128906 -20.972656 8.34375 -18.65625 8.34375 -15.875 C 8.34375 -12.894531 9.078125 -10.441406 10.546875 -8.515625 C 12.015625 -6.597656 13.957031 -5.640625 16.375 -5.640625 Z M 16.375 -5.640625 "/></g></g></g><g fill="#ffffff" fill-opacity="1"><g transform="translate(238.557367, 91.53705)"><g><path d="M 44.875 -31.828125 C 47.738281 -31.828125 50.171875 -31.203125 52.171875 -29.953125 C 54.179688 -28.703125 55.71875 -26.960938 56.78125 -24.734375 C 57.84375 -22.503906 58.375 -19.921875 58.375 -16.984375 L 58.375 -3.1875 C 58.375 -2.25 58.078125 -1.484375 57.484375 -0.890625 C 56.890625 -0.296875 56.019531 0 54.875 0 C 53.851562 0 53.015625 -0.296875 52.359375 -0.890625 C 51.703125 -1.484375 51.375 -2.25 51.375 -3.1875 L 51.375 -17.109375 C 51.375 -19.640625 50.769531 -21.703125 49.5625 -23.296875 C 48.363281 -24.890625 46.476562 -25.6875 43.90625 -25.6875 C 42.59375 -25.6875 41.207031 -25.273438 39.75 -24.453125 C 38.300781 -23.640625 37.078125 -22.457031 36.078125 -20.90625 C 35.078125 -19.351562 34.578125 -17.453125 34.578125 -15.203125 L 34.578125 -3.1875 C 34.578125 -2.25 34.28125 -1.484375 33.6875 -0.890625 C 33.09375 -0.296875 32.242188 0 31.140625 0 C 30.117188 0 29.269531 -0.296875 28.59375 -0.890625 C 27.925781 -1.484375 27.59375 -2.25 27.59375 -3.1875 L 27.59375 -17.109375 C 27.59375 -19.640625 26.988281 -21.703125 25.78125 -23.296875 C 24.570312 -24.890625 22.679688 -25.6875 20.109375 -25.6875 C 19.335938 -25.6875 18.4375 -25.472656 17.40625 -25.046875 C 16.382812 -24.617188 15.382812 -23.972656 14.40625 -23.109375 C 13.425781 -22.253906 12.617188 -21.171875 11.984375 -19.859375 C 11.347656 -18.554688 11.03125 -17.003906 11.03125 -15.203125 L 11.03125 -3.0625 C 11.03125 -2.039062 10.660156 -1.273438 9.921875 -0.765625 C 9.191406 -0.253906 8.398438 0 7.546875 0 C 6.640625 0 5.835938 -0.253906 5.140625 -0.765625 C 4.453125 -1.273438 4.109375 -2.039062 4.109375 -3.0625 L 4.109375 -28.078125 C 4.109375 -28.941406 4.441406 -29.675781 5.109375 -30.28125 C 5.785156 -30.894531 6.597656 -31.203125 7.546875 -31.203125 C 8.609375 -31.203125 9.453125 -30.894531 10.078125 -30.28125 C 10.710938 -29.675781 11.03125 -28.941406 11.03125 -28.078125 L 11.03125 -27.890625 C 12.707031 -29.484375 14.425781 -30.535156 16.1875 -31.046875 C 17.945312 -31.566406 19.601562 -31.828125 21.15625 -31.828125 C 23.726562 -31.828125 25.953125 -31.300781 27.828125 -30.25 C 29.710938 -29.207031 31.207031 -27.789062 32.3125 -26 C 33.582031 -27.550781 34.953125 -28.742188 36.421875 -29.578125 C 37.890625 -30.421875 39.359375 -31.003906 40.828125 -31.328125 C 42.304688 -31.660156 43.65625 -31.828125 44.875 -31.828125 Z M 44.875 -31.828125 "/></g></g></g><g fill="#ffffff" fill-opacity="1"><g transform="translate(301.703246, 91.53705)"><g><path d="M 28.578125 -31.203125 C 29.640625 -31.203125 30.546875 -30.742188 31.296875 -29.828125 C 32.054688 -28.910156 32.210938 -27.835938 31.765625 -26.609375 L 13.859375 8.515625 C 13.453125 9.296875 12.929688 9.910156 12.296875 10.359375 C 11.660156 10.804688 10.992188 11.03125 10.296875 11.03125 C 9.609375 11.03125 8.96875 10.796875 8.375 10.328125 C 7.78125 9.859375 7.367188 9.253906 7.140625 8.515625 C 6.921875 7.785156 7.015625 7.007812 7.421875 6.1875 L 12.078125 -3 L 0 -26.359375 C -0.363281 -27.179688 -0.410156 -27.957031 -0.140625 -28.6875 C 0.117188 -29.425781 0.550781 -30.03125 1.15625 -30.5 C 1.769531 -30.96875 2.445312 -31.203125 3.1875 -31.203125 C 3.84375 -31.203125 4.476562 -31 5.09375 -30.59375 C 5.707031 -30.1875 6.15625 -29.65625 6.4375 -29 L 15.875 -10.546875 L 25.328125 -29.0625 C 25.609375 -29.71875 26.035156 -30.238281 26.609375 -30.625 C 27.179688 -31.007812 27.835938 -31.203125 28.578125 -31.203125 Z M 28.578125 -31.203125 "/></g></g></g><g clip-path="url(#29f1f67c70)"><g clip-path="url(#bcaf85a1ad)"><g clip-path="url(#158a2320b1)"><path fill="#18cb96" d="M 344.578125 41.304688 L 324.492188 45.957031 C 320.613281 46.855469 322.046875 54.5 326.621094 53.359375 L 339.058594 50.25 L 341.582031 62.933594 C 342.351562 66.796875 349.839844 65.136719 348.976562 61.234375 Z M 344.578125 41.304688 " fill-opacity="1" fill-rule="nonzero"/></g></g></g><g clip-path="url(#245cdc0ce5)"><g clip-path="url(#2fa467f898)"><g clip-path="url(#4c94548b6e)"><path fill="#0097b2" d="M 353.292969 27.171875 L 333.207031 31.824219 C 329.328125 32.722656 330.765625 40.371094 335.339844 39.226562 L 347.777344 36.117188 L 350.300781 48.800781 C 351.066406 52.664062 358.554688 51.003906 357.695312 47.101562 Z M 353.292969 27.171875 " fill-opacity="1" fill-rule="nonzero"/></g></g></g><g fill="#0097b2" fill-opacity="1"><g transform="translate(168.674394, 109.236612)"><g><path d="M 0.3125 0 L 3.78125 -9.5 L 5.75 -9.5 L 9.21875 0 L 7.375 0 L 6.609375 -2.203125 L 2.90625 -2.203125 L 2.125 0 Z M 3.375 -3.5625 L 6.140625 -3.5625 L 4.75 -7.515625 Z M 3.375 -3.5625 "/></g></g></g><g fill="#0097b2" fill-opacity="1"><g transform="translate(177.667618, 109.236612)"><g/></g></g><g fill="#0097b2" fill-opacity="1"><g transform="translate(180.380154, 109.236612)"><g><path d="M 0.921875 0 L 0.921875 -9.5 L 4.734375 -9.5 C 5.722656 -9.5 6.476562 -9.269531 7 -8.8125 C 7.519531 -8.363281 7.78125 -7.78125 7.78125 -7.0625 C 7.78125 -6.46875 7.617188 -5.988281 7.296875 -5.625 C 6.972656 -5.269531 6.582031 -5.03125 6.125 -4.90625 C 6.664062 -4.789062 7.113281 -4.519531 7.46875 -4.09375 C 7.820312 -3.664062 8 -3.164062 8 -2.59375 C 8 -1.84375 7.726562 -1.222656 7.1875 -0.734375 C 6.644531 -0.242188 5.875 0 4.875 0 Z M 2.65625 -5.515625 L 4.484375 -5.515625 C 4.972656 -5.515625 5.347656 -5.625 5.609375 -5.84375 C 5.867188 -6.070312 6 -6.394531 6 -6.8125 C 6 -7.207031 5.867188 -7.519531 5.609375 -7.75 C 5.359375 -7.988281 4.972656 -8.109375 4.453125 -8.109375 L 2.65625 -8.109375 Z M 2.65625 -1.40625 L 4.609375 -1.40625 C 5.117188 -1.40625 5.515625 -1.523438 5.796875 -1.765625 C 6.085938 -2.003906 6.234375 -2.34375 6.234375 -2.78125 C 6.234375 -3.226562 6.082031 -3.578125 5.78125 -3.828125 C 5.488281 -4.078125 5.085938 -4.203125 4.578125 -4.203125 L 2.65625 -4.203125 Z M 2.65625 -1.40625 "/></g></g></g><g fill="#0097b2" fill-opacity="1"><g transform="translate(188.423812, 109.236612)"><g><path d="M 0.875 0 L 0.875 -6.734375 L 2.4375 -6.734375 L 2.59375 -5.46875 C 2.832031 -5.90625 3.160156 -6.25 3.578125 -6.5 C 4.003906 -6.757812 4.503906 -6.890625 5.078125 -6.890625 L 5.078125 -5.0625 L 4.59375 -5.0625 C 4.207031 -5.0625 3.863281 -5.003906 3.5625 -4.890625 C 3.269531 -4.773438 3.039062 -4.570312 2.875 -4.28125 C 2.707031 -3.988281 2.625 -3.582031 2.625 -3.0625 L 2.625 0 Z M 0.875 0 "/></g></g></g><g fill="#0097b2" fill-opacity="1"><g transform="translate(193.279657, 109.236612)"><g><path d="M 3.203125 0.15625 C 2.617188 0.15625 2.140625 0.0664062 1.765625 -0.109375 C 1.398438 -0.296875 1.125 -0.539062 0.9375 -0.84375 C 0.757812 -1.15625 0.671875 -1.5 0.671875 -1.875 C 0.671875 -2.5 0.914062 -3.003906 1.40625 -3.390625 C 1.894531 -3.785156 2.628906 -3.984375 3.609375 -3.984375 L 5.328125 -3.984375 L 5.328125 -4.140625 C 5.328125 -4.597656 5.191406 -4.9375 4.921875 -5.15625 C 4.660156 -5.375 4.335938 -5.484375 3.953125 -5.484375 C 3.597656 -5.484375 3.289062 -5.398438 3.03125 -5.234375 C 2.769531 -5.066406 2.609375 -4.820312 2.546875 -4.5 L 0.84375 -4.5 C 0.882812 -4.988281 1.046875 -5.410156 1.328125 -5.765625 C 1.617188 -6.128906 1.988281 -6.40625 2.4375 -6.59375 C 2.894531 -6.789062 3.40625 -6.890625 3.96875 -6.890625 C 4.925781 -6.890625 5.679688 -6.648438 6.234375 -6.171875 C 6.785156 -5.691406 7.0625 -5.015625 7.0625 -4.140625 L 7.0625 0 L 5.578125 0 L 5.421875 -1.09375 C 5.222656 -0.726562 4.941406 -0.425781 4.578125 -0.1875 C 4.222656 0.0390625 3.765625 0.15625 3.203125 0.15625 Z M 3.59375 -1.1875 C 4.09375 -1.1875 4.476562 -1.347656 4.75 -1.671875 C 5.03125 -2.003906 5.207031 -2.410156 5.28125 -2.890625 L 3.796875 -2.890625 C 3.335938 -2.890625 3.007812 -2.804688 2.8125 -2.640625 C 2.613281 -2.472656 2.515625 -2.265625 2.515625 -2.015625 C 2.515625 -1.753906 2.613281 -1.550781 2.8125 -1.40625 C 3.007812 -1.257812 3.269531 -1.1875 3.59375 -1.1875 Z M 3.59375 -1.1875 "/></g></g></g><g fill="#0097b2" fill-opacity="1"><g transform="translate(200.590791, 109.236612)"><g><path d="M 0.875 0 L 0.875 -6.734375 L 2.421875 -6.734375 L 2.546875 -5.59375 C 2.753906 -5.988281 3.054688 -6.300781 3.453125 -6.53125 C 3.847656 -6.769531 4.3125 -6.890625 4.84375 -6.890625 C 5.675781 -6.890625 6.320312 -6.628906 6.78125 -6.109375 C 7.25 -5.585938 7.484375 -4.816406 7.484375 -3.796875 L 7.484375 0 L 5.75 0 L 5.75 -3.640625 C 5.75 -4.222656 5.628906 -4.664062 5.390625 -4.96875 C 5.148438 -5.28125 4.785156 -5.4375 4.296875 -5.4375 C 3.804688 -5.4375 3.40625 -5.265625 3.09375 -4.921875 C 2.78125 -4.578125 2.625 -4.09375 2.625 -3.46875 L 2.625 0 Z M 0.875 0 "/></g></g></g><g fill="#0097b2" fill-opacity="1"><g transform="translate(208.322451, 109.236612)"><g><path d="M 3.984375 0.15625 C 3.347656 0.15625 2.78125 0.00390625 2.28125 -0.296875 C 1.78125 -0.609375 1.382812 -1.03125 1.09375 -1.5625 C 0.8125 -2.09375 0.671875 -2.695312 0.671875 -3.375 C 0.671875 -4.0625 0.8125 -4.664062 1.09375 -5.1875 C 1.382812 -5.71875 1.78125 -6.132812 2.28125 -6.4375 C 2.78125 -6.738281 3.347656 -6.890625 3.984375 -6.890625 C 4.484375 -6.890625 4.921875 -6.796875 5.296875 -6.609375 C 5.679688 -6.421875 5.992188 -6.15625 6.234375 -5.8125 L 6.234375 -9.78125 L 7.96875 -9.78125 L 7.96875 0 L 6.421875 0 L 6.234375 -0.96875 C 6.015625 -0.664062 5.722656 -0.398438 5.359375 -0.171875 C 5.003906 0.046875 4.546875 0.15625 3.984375 0.15625 Z M 4.34375 -1.359375 C 4.90625 -1.359375 5.363281 -1.546875 5.71875 -1.921875 C 6.082031 -2.296875 6.265625 -2.78125 6.265625 -3.375 C 6.265625 -3.957031 6.082031 -4.4375 5.71875 -4.8125 C 5.363281 -5.1875 4.90625 -5.375 4.34375 -5.375 C 3.789062 -5.375 3.332031 -5.1875 2.96875 -4.8125 C 2.613281 -4.445312 2.4375 -3.96875 2.4375 -3.375 C 2.4375 -2.789062 2.613281 -2.304688 2.96875 -1.921875 C 3.332031 -1.546875 3.789062 -1.359375 4.34375 -1.359375 Z M 4.34375 -1.359375 "/></g></g></g><g fill="#0097b2" fill-opacity="1"><g transform="translate(216.650982, 109.236612)"><g/></g></g><g fill="#0097b2" fill-opacity="1"><g transform="translate(219.363517, 109.236612)"><g><path d="M 0.921875 0 L 0.921875 -9.5 L 4.734375 -9.5 C 5.722656 -9.5 6.476562 -9.269531 7 -8.8125 C 7.519531 -8.363281 7.78125 -7.78125 7.78125 -7.0625 C 7.78125 -6.46875 7.617188 -5.988281 7.296875 -5.625 C 6.972656 -5.269531 6.582031 -5.03125 6.125 -4.90625 C 6.664062 -4.789062 7.113281 -4.519531 7.46875 -4.09375 C 7.820312 -3.664062 8 -3.164062 8 -2.59375 C 8 -1.84375 7.726562 -1.222656 7.1875 -0.734375 C 6.644531 -0.242188 5.875 0 4.875 0 Z M 2.65625 -5.515625 L 4.484375 -5.515625 C 4.972656 -5.515625 5.347656 -5.625 5.609375 -5.84375 C 5.867188 -6.070312 6 -6.394531 6 -6.8125 C 6 -7.207031 5.867188 -7.519531 5.609375 -7.75 C 5.359375 -7.988281 4.972656 -8.109375 4.453125 -8.109375 L 2.65625 -8.109375 Z M 2.65625 -1.40625 L 4.609375 -1.40625 C 5.117188 -1.40625 5.515625 -1.523438 5.796875 -1.765625 C 6.085938 -2.003906 6.234375 -2.34375 6.234375 -2.78125 C 6.234375 -3.226562 6.082031 -3.578125 5.78125 -3.828125 C 5.488281 -4.078125 5.085938 -4.203125 4.578125 -4.203125 L 2.65625 -4.203125 Z M 2.65625 -1.40625 "/></g></g></g><g fill="#0097b2" fill-opacity="1"><g transform="translate(227.407174, 109.236612)"><g><path d="M 1.71875 2.984375 L 3.28125 -0.453125 L 2.875 -0.453125 L 0.265625 -6.734375 L 2.140625 -6.734375 L 4.03125 -2 L 6 -6.734375 L 7.84375 -6.734375 L 3.578125 2.984375 Z M 1.71875 2.984375 "/></g></g></g><g fill="#0097b2" fill-opacity="1"><g transform="translate(234.989622, 109.236612)"><g/></g></g><g fill="#0097b2" fill-opacity="1"><g transform="translate(237.702157, 109.236612)"><g><path d="M 0.3125 0 L 3.78125 -9.5 L 5.75 -9.5 L 9.21875 0 L 7.375 0 L 6.609375 -2.203125 L 2.90625 -2.203125 L 2.125 0 Z M 3.375 -3.5625 L 6.140625 -3.5625 L 4.75 -7.515625 Z M 3.375 -3.5625 "/></g></g></g><g fill="#0097b2" fill-opacity="1"><g transform="translate(246.695378, 109.236612)"><g><path d="M 4.15625 0.15625 C 3.476562 0.15625 2.875 0.015625 2.34375 -0.265625 C 1.820312 -0.554688 1.410156 -0.960938 1.109375 -1.484375 C 0.816406 -2.015625 0.671875 -2.625 0.671875 -3.3125 C 0.671875 -4.007812 0.816406 -4.628906 1.109375 -5.171875 C 1.398438 -5.710938 1.804688 -6.132812 2.328125 -6.4375 C 2.847656 -6.738281 3.460938 -6.890625 4.171875 -6.890625 C 4.828125 -6.890625 5.410156 -6.742188 5.921875 -6.453125 C 6.429688 -6.171875 6.828125 -5.773438 7.109375 -5.265625 C 7.390625 -4.765625 7.53125 -4.207031 7.53125 -3.59375 C 7.53125 -3.5 7.523438 -3.394531 7.515625 -3.28125 C 7.515625 -3.175781 7.515625 -3.066406 7.515625 -2.953125 L 2.390625 -2.953125 C 2.421875 -2.421875 2.601562 -2.003906 2.9375 -1.703125 C 3.269531 -1.410156 3.671875 -1.265625 4.140625 -1.265625 C 4.492188 -1.265625 4.789062 -1.34375 5.03125 -1.5 C 5.269531 -1.65625 5.445312 -1.863281 5.5625 -2.125 L 7.328125 -2.125 C 7.203125 -1.695312 6.992188 -1.304688 6.703125 -0.953125 C 6.410156 -0.609375 6.046875 -0.335938 5.609375 -0.140625 C 5.179688 0.0546875 4.695312 0.15625 4.15625 0.15625 Z M 4.171875 -5.484375 C 3.742188 -5.484375 3.363281 -5.363281 3.03125 -5.125 C 2.707031 -4.882812 2.503906 -4.519531 2.421875 -4.03125 L 5.765625 -4.03125 C 5.742188 -4.476562 5.582031 -4.832031 5.28125 -5.09375 C 4.976562 -5.351562 4.609375 -5.484375 4.171875 -5.484375 Z M 4.171875 -5.484375 "/></g></g></g><g fill="#0097b2" fill-opacity="1"><g transform="translate(254.291388, 109.236612)"><g><path d="M 0.875 0 L 0.875 -6.734375 L 2.4375 -6.734375 L 2.59375 -5.46875 C 2.832031 -5.90625 3.160156 -6.25 3.578125 -6.5 C 4.003906 -6.757812 4.503906 -6.890625 5.078125 -6.890625 L 5.078125 -5.0625 L 4.59375 -5.0625 C 4.207031 -5.0625 3.863281 -5.003906 3.5625 -4.890625 C 3.269531 -4.773438 3.039062 -4.570312 2.875 -4.28125 C 2.707031 -3.988281 2.625 -3.582031 2.625 -3.0625 L 2.625 0 Z M 0.875 0 "/></g></g></g><g fill="#0097b2" fill-opacity="1"><g transform="translate(259.14723, 109.236612)"><g><path d="M 4.109375 0.15625 C 3.460938 0.15625 2.878906 0.0078125 2.359375 -0.28125 C 1.835938 -0.582031 1.425781 -1 1.125 -1.53125 C 0.820312 -2.0625 0.671875 -2.675781 0.671875 -3.375 C 0.671875 -4.0625 0.820312 -4.671875 1.125 -5.203125 C 1.4375 -5.734375 1.851562 -6.144531 2.375 -6.4375 C 2.894531 -6.738281 3.476562 -6.890625 4.125 -6.890625 C 4.769531 -6.890625 5.351562 -6.738281 5.875 -6.4375 C 6.394531 -6.144531 6.804688 -5.734375 7.109375 -5.203125 C 7.410156 -4.671875 7.5625 -4.0625 7.5625 -3.375 C 7.5625 -2.675781 7.410156 -2.0625 7.109375 -1.53125 C 6.804688 -1 6.390625 -0.582031 5.859375 -0.28125 C 5.335938 0.0078125 4.753906 0.15625 4.109375 0.15625 Z M 4.109375 -1.34375 C 4.566406 -1.34375 4.960938 -1.507812 5.296875 -1.84375 C 5.628906 -2.1875 5.796875 -2.695312 5.796875 -3.375 C 5.796875 -4.039062 5.628906 -4.539062 5.296875 -4.875 C 4.960938 -5.21875 4.570312 -5.390625 4.125 -5.390625 C 3.664062 -5.390625 3.269531 -5.21875 2.9375 -4.875 C 2.601562 -4.539062 2.4375 -4.039062 2.4375 -3.375 C 2.4375 -2.695312 2.601562 -2.1875 2.9375 -1.84375 C 3.269531 -1.507812 3.660156 -1.34375 4.109375 -1.34375 Z M 4.109375 -1.34375 "/></g></g></g><g fill="#0097b2" fill-opacity="1"><g transform="translate(266.851755, 109.236612)"><g><path d="M 2.203125 0 L 0.234375 -6.734375 L 1.953125 -6.734375 L 3.125 -1.890625 L 4.484375 -6.734375 L 6.40625 -6.734375 L 7.765625 -1.890625 L 8.953125 -6.734375 L 10.671875 -6.734375 L 8.6875 0 L 6.890625 0 L 5.4375 -5.03125 L 4 0 Z M 2.203125 0 "/></g></g></g><g fill="#0097b2" fill-opacity="1"><g transform="translate(277.215067, 109.236612)"><g><path d="M 4.109375 0.15625 C 3.460938 0.15625 2.878906 0.0078125 2.359375 -0.28125 C 1.835938 -0.582031 1.425781 -1 1.125 -1.53125 C 0.820312 -2.0625 0.671875 -2.675781 0.671875 -3.375 C 0.671875 -4.0625 0.820312 -4.671875 1.125 -5.203125 C 1.4375 -5.734375 1.851562 -6.144531 2.375 -6.4375 C 2.894531 -6.738281 3.476562 -6.890625 4.125 -6.890625 C 4.769531 -6.890625 5.351562 -6.738281 5.875 -6.4375 C 6.394531 -6.144531 6.804688 -5.734375 7.109375 -5.203125 C 7.410156 -4.671875 7.5625 -4.0625 7.5625 -3.375 C 7.5625 -2.675781 7.410156 -2.0625 7.109375 -1.53125 C 6.804688 -1 6.390625 -0.582031 5.859375 -0.28125 C 5.335938 0.0078125 4.753906 0.15625 4.109375 0.15625 Z M 4.109375 -1.34375 C 4.566406 -1.34375 4.960938 -1.507812 5.296875 -1.84375 C 5.628906 -2.1875 5.796875 -2.695312 5.796875 -3.375 C 5.796875 -4.039062 5.628906 -4.539062 5.296875 -4.875 C 4.960938 -5.21875 4.570312 -5.390625 4.125 -5.390625 C 3.664062 -5.390625 3.269531 -5.21875 2.9375 -4.875 C 2.601562 -4.539062 2.4375 -4.039062 2.4375 -3.375 C 2.4375 -2.695312 2.601562 -2.1875 2.9375 -1.84375 C 3.269531 -1.507812 3.660156 -1.34375 4.109375 -1.34375 Z M 4.109375 -1.34375 "/></g></g></g><g fill="#0097b2" fill-opacity="1"><g transform="translate(284.919598, 109.236612)"><g><path d="M 0.875 0 L 0.875 -6.734375 L 2.4375 -6.734375 L 2.59375 -5.46875 C 2.832031 -5.90625 3.160156 -6.25 3.578125 -6.5 C 4.003906 -6.757812 4.503906 -6.890625 5.078125 -6.890625 L 5.078125 -5.0625 L 4.59375 -5.0625 C 4.207031 -5.0625 3.863281 -5.003906 3.5625 -4.890625 C 3.269531 -4.773438 3.039062 -4.570312 2.875 -4.28125 C 2.707031 -3.988281 2.625 -3.582031 2.625 -3.0625 L 2.625 0 Z M 0.875 0 "/></g></g></g><g fill="#0097b2" fill-opacity="1"><g transform="translate(289.77544, 109.236612)"><g><path d="M 0.875 0 L 0.875 -9.78125 L 2.625 -9.78125 L 2.625 -4 L 5.015625 -6.734375 L 7.078125 -6.734375 L 4.3125 -3.671875 L 7.515625 0 L 5.34375 0 L 2.625 -3.375 L 2.625 0 Z M 0.875 0 "/></g></g></g><g fill="#0097b2" fill-opacity="1"><g transform="translate(296.964499, 109.236612)"><g><path d="M 3.671875 0.15625 C 3.066406 0.15625 2.535156 0.0625 2.078125 -0.125 C 1.628906 -0.320312 1.269531 -0.59375 1 -0.9375 C 0.726562 -1.28125 0.566406 -1.675781 0.515625 -2.125 L 2.265625 -2.125 C 2.316406 -1.863281 2.460938 -1.640625 2.703125 -1.453125 C 2.941406 -1.273438 3.253906 -1.1875 3.640625 -1.1875 C 4.015625 -1.1875 4.289062 -1.257812 4.46875 -1.40625 C 4.644531 -1.5625 4.734375 -1.738281 4.734375 -1.9375 C 4.734375 -2.226562 4.609375 -2.425781 4.359375 -2.53125 C 4.109375 -2.632812 3.753906 -2.738281 3.296875 -2.84375 C 3.003906 -2.90625 2.707031 -2.976562 2.40625 -3.0625 C 2.113281 -3.15625 1.84375 -3.269531 1.59375 -3.40625 C 1.34375 -3.550781 1.140625 -3.734375 0.984375 -3.953125 C 0.835938 -4.179688 0.765625 -4.457031 0.765625 -4.78125 C 0.765625 -5.375 1 -5.875 1.46875 -6.28125 C 1.945312 -6.6875 2.613281 -6.890625 3.46875 -6.890625 C 4.269531 -6.890625 4.90625 -6.703125 5.375 -6.328125 C 5.851562 -5.960938 6.140625 -5.457031 6.234375 -4.8125 L 4.59375 -4.8125 C 4.488281 -5.300781 4.113281 -5.546875 3.46875 -5.546875 C 3.132812 -5.546875 2.878906 -5.484375 2.703125 -5.359375 C 2.523438 -5.234375 2.4375 -5.078125 2.4375 -4.890625 C 2.4375 -4.691406 2.566406 -4.53125 2.828125 -4.40625 C 3.097656 -4.289062 3.453125 -4.1875 3.890625 -4.09375 C 4.359375 -3.976562 4.785156 -3.851562 5.171875 -3.71875 C 5.566406 -3.59375 5.882812 -3.398438 6.125 -3.140625 C 6.363281 -2.878906 6.484375 -2.507812 6.484375 -2.03125 C 6.484375 -1.613281 6.367188 -1.238281 6.140625 -0.90625 C 5.921875 -0.570312 5.597656 -0.3125 5.171875 -0.125 C 4.742188 0.0625 4.242188 0.15625 3.671875 0.15625 Z M 3.671875 0.15625 "/></g></g></g></svg>